<?xml version="1.0" standalone="no"?><!DOCTYPE svg PUBLIC "-//W3C//DTD SVG 1.1//EN" "http://www.w3.org/Graphics/SVG/1.1/DTD/svg11.dtd"><svg t="1554270215449" class="icon" style="" viewBox="0 0 1024 1024" version="1.1" xmlns="http://www.w3.org/2000/svg" p-id="6876" xmlns:xlink="http://www.w3.org/1999/xlink" width="32" height="32"><defs><style type="text/css"></style></defs><path d="M244.592 429.694c53.04 0 96.19-43.15 96.19-96.19s-43.15-96.191-96.19-96.191-96.191 43.15-96.191 96.19 43.15 96.191 96.19 96.191z m0-161.682c36.112 0 65.491 29.38 65.491 65.492s-29.379 65.491-65.491 65.491-65.492-29.379-65.492-65.491 29.38-65.492 65.492-65.492z" p-id="6877" fill="#000000"></path><path d="M691.776 501.057V125.96H69.606v771.385h622.17V503.061l1.004-0.934c-0.335-0.36-0.669-0.712-1.004-1.07z m-30.699-344.398v314.412c-52.281-46.124-100.766-62.97-144.507-50.084-79.323 23.371-115.655 138.383-127.746 187.546-76.557-46.666-143.854-58.95-200.272-36.502-41.74 16.61-69.89 49.268-88.245 80.202V156.659h560.77zM100.305 866.646v-135.74c2.971-11.542 28.384-102.122 99.743-130.408 51.018-20.223 115.12-4.883 190.524 45.59l19.528 13.07 4.122-23.133c0.073-0.41 7.522-41.549 25.703-85.544 16.08-38.91 43.935-87.852 85.32-100.046 38.13-11.233 83.787 9.955 135.832 62.958v353.253H100.305zM765.454 158.612h188.288v30.7H765.454v-30.7zM765.454 383.74h188.288v30.699H765.454v-30.7zM765.454 608.867h188.288v30.7H765.454v-30.7zM765.454 833.995h188.288v30.699H765.454v-30.7z" p-id="6878" fill="#000000"></path></svg>